<?xml version="1.0" encoding="utf-8"?>
<!-- Generator: Adobe Illustrator 19.0.0, SVG Export Plug-In . SVG Version: 6.00 Build 0)  -->
<svg version="1.1" id="Layer_1" xmlns="http://www.w3.org/2000/svg" xmlns:xlink="http://www.w3.org/1999/xlink" x="0px" y="0px"
	 viewBox="0 0 80 80" style="enable-background:new 0 0 80 80;" xml:space="preserve">
<style type="text/css">
	.st0{fill:#3B909C;}
</style>
<path id="XMLID_1059_" class="st0" d="M41.4,73.9c0,0-23.2-1.7-25.1-18.1s9.9-30.4,25.9-49.7C42.3,6.1,13.2,48.5,41.4,73.9z"/>
<path id="XMLID_1058_" class="st0" d="M43.7,8.7c0,0,21.8,25.7,20.1,44.7c-1.6,19-21.3,17.5-21.3,17.5S70.5,67.5,43.7,8.7z"/>
<path id="XMLID_1057_" class="st0" d="M42.3,8.8c-1.1,4-2.4,8.9-3.6,14.6c0,0-2.3,10-0.2,15.7c0.2,0.5,0.6,1.3,1.4,1.9
	c1,0.7,2.6,0.8,3.7,0.2c0.5-0.3,1.2-0.9,1.7-2.2c1.7-4.8-0.6-15.8-1.1-18.2C43.5,17.9,42.8,13.9,42.3,8.8z"/>
<path id="XMLID_1056_" class="st0" d="M41.4,69.1c-0.6-1.1-1.4-2.8-2-4.9c-0.6-1.8-3.6-12.2,0.4-15.2c1.2-0.9,3.1-0.9,4.2-0.2
	c2.6,1.5,2.2,6.5,2.1,8.6C45.7,62.3,43.5,66.3,41.4,69.1z"/>
</svg>
