<?xml version="1.0" encoding="utf-8"?>
<!-- Generator: Adobe Illustrator 19.0.0, SVG Export Plug-In . SVG Version: 6.00 Build 0)  -->
<svg version="1.1" id="Layer_1" xmlns="http://www.w3.org/2000/svg" xmlns:xlink="http://www.w3.org/1999/xlink" x="0px" y="0px"
	 viewBox="0 0 640 380" style="enable-background:new 0 0 640 380;" xml:space="preserve">
<style type="text/css">
	.st0{fill:#FDB813;}
	.st1{fill:#F4F4F4;}
</style>
<circle id="tyre_5_" class="st0" cx="141" cy="288.5" r="48.3"/>
<circle id="tyre_3_" class="st0" cx="414.3" cy="288.5" r="48.3"/>
<circle id="tyre_2_" class="st0" cx="534.5" cy="288.6" r="48.3"/>
<path id="base_x5F_truck" class="st0" d="M588.6,227.5c-12.4,0-62.7,0-62.7,0v-12.1c0.8,0,1.7,0,2.5,0c1.6,0.1,3.3,0.2,5,0.2
	s3.3-0.1,5-0.2c0.1,0,0.2,0,0.4,0c0.1,0,0.1,0,0.2,0c42.8-2.8,76.7-38.4,76.7-82c0-45.4-36.8-82.2-82.2-82.2l0,0v-7h-44.4v7.1h-53.7
	v-7.1h-44.4v7.1h-55.7v-7.1h-44.4v6.9c-2,0-3.9,0.1-5.9,0.2h-4.5c0,0-0.2,0.1-0.7,0.5c-40.1,5.4-71.1,39.8-71.1,81.4
	c0,45.4,36.8,82.2,82.2,82.2c1.2,0,2.4,0,3.6-0.1h10V227H187.3v-8.1v-1.2V69.2H60.6L28,162.3v101.2c0,0,0.1,9.7,7.3,11.6H48h31.7H85
	h2.7c6-23.9,27.6-41.6,53.3-41.6s47.3,17.7,53.3,41.6h0.6h166.6c6-23.9,27.6-41.6,53.3-41.6s47.3,17.7,53.3,41.6h13.3
	c6-23.9,27.6-41.5,53.3-41.5c25.7,0,47.3,17.7,53.3,41.5h8.2h2.8h1.3v-37.4C600.3,237.8,601,227.5,588.6,227.5z M145,151.8H44.8
	l23-72H145V151.8z"/>
<g id="sns">
	<path id="XMLID_181_" class="st1" d="M413.9,170.1c-3.8,1.9-11.4,3.8-21.1,3.8c-22.5,0-39.5-14.2-39.5-40.4c0-25,17-42,41.8-42
		c10,0,16.3,2.1,19,3.6l-2.5,8.4c-3.9-1.9-9.5-3.3-16.1-3.3c-18.7,0-31.2,12-31.2,33c0,19.6,11.3,32.1,30.7,32.1
		c6.3,0,12.7-1.3,16.8-3.3L413.9,170.1z"/>
	<path id="XMLID_183_" class="st1" d="M437.2,92.8v33.5h38.7V92.8h10.4v80h-10.4v-37.5h-38.7v37.5h-10.3v-80H437.2z"/>
	<path id="XMLID_185_" class="st1" d="M560.1,170.1c-3.8,1.9-11.4,3.8-21.1,3.8c-22.5,0-39.5-14.2-39.5-40.4c0-25,17-42,41.8-42
		c10,0,16.3,2.1,19,3.6l-2.5,8.4c-3.9-1.9-9.5-3.3-16.1-3.3c-18.7,0-31.2,12-31.2,33c0,19.6,11.3,32.1,30.7,32.1
		c6.3,0,12.7-1.3,16.8-3.3L560.1,170.1z"/>
</g>
<g id="logo_x5F_drop_4_">
	<path id="l_x5F_d1_4_" class="st1" d="M290,178.5c0,0-30.9-2.3-33.4-24.2c-2.5-21.9,13.2-40.6,34.6-66.2
		C291.1,88.1,252.4,144.7,290,178.5z"/>
	<path id="l_x5F_d2_4_" class="st1" d="M293,91.6c0,0,29,34.2,26.8,59.5s-28.4,23.3-28.4,23.3S328.7,170,293,91.6z"/>
	<path id="l_x5F_d3_4_" class="st1" d="M291.1,91.8c-1.5,5.3-3.1,11.9-4.9,19.4c0,0-3,13.3-0.2,20.9c0.3,0.7,0.8,1.8,1.8,2.5
		c1.4,0.9,3.4,1.1,4.9,0.3c0.7-0.4,1.6-1.2,2.2-2.9c2.3-6.4-0.8-21-1.4-24.3C292.8,104,291.8,98.6,291.1,91.8z"/>
	<path id="l_x5F_d4_4_" class="st1" d="M290,172.1c-0.8-1.5-1.8-3.7-2.7-6.6c-0.7-2.4-4.8-16.3,0.6-20.2c1.6-1.2,4.1-1.2,5.6-0.3
		c3.5,2,3,8.6,2.7,11.5C295.7,163.1,292.8,168.4,290,172.1z"/>
</g>
</svg>
