<!-- width="200px"  -->
<svg version="1.1" 
	id="big_x5F_logo" 
	xmlns="http://www.w3.org/2000/svg" 
	xmlns:xlink="http://www.w3.org/1999/xlink" 
	x="0px" y="0px" 
	viewBox="0 0 380 380" 
	 
	style="enable-background:new 0 0 380 380;" 
	xml:space="preserve">

<style type="text/css">
	.st0{fill:#FCB715;}
</style>
<g id="logo_x5F_drop_6_">
	<path id="l_x5F_d1_6_" class="st0" d="M191.3,339.4c0,0-102.7-7.7-111.1-80.4s44-134.9,115-220.2
		C195.1,38.9,66.1,226.9,191.3,339.4z"/>
	<path id="l_x5F_d2_6_" class="st0" d="M201.3,50.5c0,0,96.4,113.8,89.1,197.9s-94.6,77.4-94.6,77.4S320,311.3,201.3,50.5z"/>
	<path id="l_x5F_d3_6_" class="st0" d="M195.1,51.1c-4.8,17.8-10.4,39.5-16.2,64.6c0,0-10.1,44.1-0.7,69.6c0.9,2.4,2.6,5.9,6.1,8.4
		c4.6,3.1,11.3,3.6,16.3,0.9c2.4-1.3,5.3-3.9,7.3-9.6c7.7-21.4-2.5-69.8-4.8-80.8C200.6,91.5,197.4,73.5,195.1,51.1z"/>
	<path id="l_x5F_d4_6_" class="st0" d="M191.4,318.1c-2.5-4.9-6-12.4-9-21.8c-2.5-7.9-16-54.2,1.8-67.2c5.5-4,13.5-4,18.8-1.1
		c11.7,6.6,9.9,28.6,9.1,38.2C210.3,288.2,200.6,305.9,191.4,318.1z"/>
</g>
</svg>
