
<!-- width="300px"  -->
<svg version="1.1" 
							id="hran_ico" 
							xmlns="http://www.w3.org/2000/svg" 
							xmlns:xlink="http://www.w3.org/1999/xlink" 
							x="0px" y="0px" 
							viewBox="0 0 380 380" 
							
							style="enable-background:new 0 0 380 380;" 
							xml:space="preserve">
							
							<style type="text/css">
								.hran_st0{fill:none;stroke:#939090;stroke-width:2;}
								.hran_st1{fill:none;stroke:#FCB715;stroke-width:3;}
								.hran_st2{fill:#FCB715;stroke:#FDB813;stroke-width:2;stroke-miterlimit:10;}
								.hran_st3{fill:none;stroke:#FCB715;stroke-width:2;stroke-linecap:round;}
								.hran_st4{fill:#385DAA;}
								.hran_st5{fill:#F4F4F4;}
								.hran_st6{display:none;fill:#FFCC62;stroke:#FFFFFF;stroke-width:2;stroke-miterlimit:10;}
							</style>
							<g id="tank_x5F_farm_1_">
								<ellipse id="XMLID_587_" class="hran_st0" cx="189.4" cy="59.1" rx="120.8" ry="34.6"/>
								<ellipse id="XMLID_586_" class="hran_st0" cx="188.8" cy="59.1" rx="120.8" ry="34.6"/>
								<ellipse id="rails_1_" class="hran_st1" cx="189.1" cy="59.1" rx="120.8" ry="34.6"/>
								<path id="tank_x5F_base_1_" class="hran_st2" d="M309.9,83.5L309.9,83.5c0-19.1-54.1-34.6-120.8-34.6S68.3,64.4,68.3,83.5v237.4l0,0v0
									c0,19.1,54.1,34.6,120.8,34.6s120.8-15.5,120.8-34.6v0h0V83.5z"/>
								<line id="rail_x5F_line5_1_" class="hran_st3" x1="189.4" y1="24.4" x2="189.4" y2="48.9"/>
								<line id="rail_x5F_line7_1_" class="hran_st3" x1="270.1" y1="33.3" x2="270.1" y2="57.7"/>
								<line id="rail_x5F_line3_1_" class="hran_st3" x1="109.1" y1="33.3" x2="109.1" y2="57.7"/>
								<line id="rail_x5F_line4_1_" class="hran_st3" x1="145.8" y1="27.1" x2="145.8" y2="51.5"/>
								<line id="rail_x5F_line6_1_" class="hran_st3" x1="231.4" y1="27.1" x2="231.4" y2="51.5"/>
								<line id="rail_x5F_line2_1_" class="hran_st3" x1="81.1" y1="44" x2="81.1" y2="68.5"/>
								<line id="rail_x5F_line8_1_" class="hran_st3" x1="295.2" y1="42.9" x2="295.2" y2="67.3"/>
								<line id="rail_x5F_line1_1_" class="hran_st3" x1="68.3" y1="59.1" x2="68.3" y2="83.5"/>
								<line id="rail_x5F_line9_1_" class="hran_st3" x1="309.9" y1="59.1" x2="309.9" y2="83.5"/>
								<path id="XMLID_585_" class="hran_st4" d="M129.6,118.1"/>
							</g>
							<g id="XMLID_269_">
								<path id="XMLID_270_" class="hran_st5" d="M157.1,306c-2.6,1.3-7.9,2.6-14.7,2.6c-15.7,0-27.5-9.9-27.5-28.1c0-17.4,11.8-29.2,29-29.2
									c6.9,0,11.3,1.5,13.2,2.5l-1.7,5.9c-2.7-1.3-6.6-2.3-11.2-2.3c-13,0-21.7,8.3-21.7,22.9c0,13.6,7.8,22.4,21.4,22.4
									c4.4,0,8.8-0.9,11.7-2.3L157.1,306z"/>
								<path id="XMLID_272_" class="hran_st5" d="M173.3,252.2v23.3h26.9v-23.3h7.3v55.6h-7.3v-26.1h-26.9v26.1h-7.2v-55.6H173.3z"/>
								<path id="XMLID_274_" class="hran_st5" d="M258.7,306c-2.6,1.3-7.9,2.6-14.7,2.6c-15.7,0-27.5-9.9-27.5-28.1c0-17.4,11.8-29.2,29-29.2
									c6.9,0,11.3,1.5,13.2,2.5l-1.7,5.9c-2.7-1.3-6.6-2.3-11.2-2.3c-13,0-21.7,8.3-21.7,22.9c0,13.6,7.8,22.4,21.4,22.4
									c4.4,0,8.8-0.9,11.7-2.3L258.7,306z"/>
							</g>
							<g id="logo_x5F_drop_5_">
								<path id="l_x5F_d1_5_" class="hran_st5" d="M186,220.1c0,0-44.9-3.4-48.6-35.1c-3.7-31.8,19.3-59,50.3-96.3
									C187.6,88.7,131.2,170.9,186,220.1z"/>
								<path id="l_x5F_d2_5_" class="hran_st5" d="M190.3,93.7c0,0,42.2,49.8,39,86.5c-3.2,36.8-41.4,33.8-41.4,33.8S242.3,207.8,190.3,93.7z"
									/>
								<path id="l_x5F_d3_5_" class="hran_st5" d="M187.6,94c-2.1,7.8-4.6,17.3-7.1,28.2c0,0-4.4,19.3-0.3,30.4c0.4,1,1.1,2.6,2.7,3.7
									c2,1.4,4.9,1.6,7.1,0.4c1-0.6,2.3-1.7,3.2-4.2c3.4-9.4-1.1-30.5-2.1-35.4C190,111.7,188.6,103.8,187.6,94z"/>
								<path id="l_x5F_d4_5_" class="hran_st5" d="M186,210.8c-1.1-2.1-2.6-5.4-3.9-9.6c-1.1-3.5-7-23.7,0.8-29.4c2.4-1.7,5.9-1.8,8.2-0.5
									c5.1,2.9,4.3,12.5,4,16.7C194.3,197.7,190,205.4,186,210.8z"/>
							</g>
							<rect id="cabin_x5F_hole" x="3078.6" y="4018.7" class="hran_st6" width="20.4" height="72"/>
							</svg>
						