<!-- width="300px" -->
<svg version="1.1" 
	id="stamp_ico" 
	xmlns="http://www.w3.org/2000/svg" 
	xmlns:xlink="http://www.w3.org/1999/xlink" x="0px" y="0px"
	viewBox="0 0 446.6 458.6" 
	 
	style="enable-background:new 0 0 446.6 458.6;" 
	xml:space="preserve"
	>
<style type="text/css">
	.st0{fill:#FCB715;stroke:#FCB715;stroke-width:2;}
	.st1{fill:#FCB715;}
	.st2{fill:none;stroke:#FCB715;stroke-width:2;}
</style>
<g id="XMLID_231_">
	<path id="XMLID_232_" class="st0" d="M236.3,328.8c-1.8,2.5-6,6.2-12.2,9.4c-14.3,7.5-29.9,4.1-38.6-12.6
		c-8.3-15.9-3.2-32.3,12.6-40.6c6.3-3.3,11-4.1,13.3-4.1l1.2,6.2c-3.1,0.1-7.1,1-11.4,3.3c-11.9,6.2-15.8,18-8.9,31.4
		c6.5,12.4,17.9,16.7,30.2,10.2c4-2.1,7.6-5.1,9.6-7.7L236.3,328.8z"/>
	<path id="XMLID_254_" class="st0" d="M225.3,271.8l11.1,21.3l24.6-12.9L249.9,259l6.6-3.5l26.6,50.8l-6.6,3.5L264,286l-24.6,12.9
		l12.5,23.8l-6.6,3.4l-26.6-50.8L225.3,271.8z"/>
	<path id="XMLID_256_" class="st0" d="M329.2,280.1c-1.8,2.5-6,6.2-12.2,9.4c-14.3,7.5-29.9,4.1-38.6-12.6
		c-8.3-15.9-3.2-32.3,12.6-40.6c6.3-3.3,11-4.1,13.3-4.1l1.2,6.2c-3.1,0.1-7.1,1-11.4,3.3c-11.9,6.2-15.8,18-8.9,31.4
		c6.5,12.4,17.9,16.7,30.2,10.2c4-2.1,7.6-5.1,9.6-7.7L329.2,280.1z"/>
</g>
<g id="logo_x5F_drop_4_">
	<path id="l_x5F_d1_4_" class="st1" d="M226.9,246.9c0,0-42.7,18.4-61.3-8.9c-18.6-27.3-10.6-63.1-0.1-112.1
		C165.5,125.9,153.3,228.1,226.9,246.9z"/>
	<path id="l_x5F_d2_4_" class="st1" d="M170.5,129.2c0,0,62.4,25.3,77.1,60.5c14.7,35.1-21.6,50.7-21.6,50.7
		S272.5,208.7,170.5,129.2z"/>
	<path id="l_x5F_d3_4_" class="st1" d="M168.1,130.8c1.8,8.1,4.1,18,7.1,29.2c0,0,5.2,19.7,14.3,28c0.8,0.8,2.3,1.8,4.2,2.1
		c2.5,0.3,5.3-0.9,6.7-3.1c0.7-1,1.3-2.7,0.9-5.4c-1.4-10.2-15.6-27.4-18.8-31.3C178.8,145.8,173.7,139.3,168.1,130.8z"/>
	<path id="l_x5F_d4_4_" class="st1" d="M222.5,238.3c-2-1.4-5-3.7-8.2-6.9c-2.6-2.6-17.7-18.3-13.3-27.2c1.4-2.7,4.6-4.4,7.3-4.4
		c6.1,0.2,10,9.4,11.6,13.4C223.8,222.4,223.6,231.5,222.5,238.3z"/>
</g>
<circle id="inner_x5F_ring" class="st2" cx="223.3" cy="229.3" r="134.9"/>
<circle id="out_x5F_ring" class="st2" cx="223.3" cy="229.3" r="166.6"/>
<g id="sns_x5F_name">
	<path id="XMLID_121_" class="st1" d="M72,227.6c7.9-0.5,12.3,4.1,12.7,9.9c0.3,6-4.1,10.6-11,11c-7.3,0.4-12.3-3.8-12.6-9.9
		C60.6,232.3,65.2,228,72,227.6z M73.4,245.4c4.9-0.3,9.1-3.2,8.8-7.8c-0.3-4.7-4.7-7.1-9.9-6.8c-4.5,0.3-9.2,2.9-8.9,7.8
		C63.7,243.5,68.3,245.7,73.4,245.4z"/>
	<path id="XMLID_124_" class="st1" d="M74.2,203.3c7.8,0.8,11.5,6,10.9,11.8c-0.6,6-5.7,9.8-12.6,9c-7.2-0.8-11.5-5.8-10.9-11.8
		C62.3,206.1,67.5,202.6,74.2,203.3z M72.8,221c4.9,0.5,9.5-1.7,10-6.3c0.5-4.7-3.5-7.8-8.7-8.3c-4.5-0.5-9.5,1.4-10,6.3
		C63.5,217.6,67.8,220.5,72.8,221z"/>
	<path id="XMLID_127_" class="st1" d="M80.4,179.6c7.6,2.1,10.4,7.8,8.9,13.4c-1.6,5.8-7.2,8.7-13.9,6.9c-7-1.9-10.4-7.5-8.8-13.4
		C68.1,180.5,73.8,177.9,80.4,179.6z M76.1,196.9c4.7,1.3,9.7-0.1,10.9-4.6c1.2-4.5-2.2-8.2-7.3-9.6c-4.4-1.2-9.6-0.1-10.9,4.6
		C67.5,192,71.2,195.6,76.1,196.9z"/>
	<path id="XMLID_130_" class="st1" d="M82.5,148.4l20.4,10.4l-1.3,2.6l-18.2-9.3l-4.8,9.5l18.2,9.3l-1.3,2.6L75,163.1L82.5,148.4z"
		/>
	<path id="XMLID_132_" class="st1" d="M86.7,142.1c0.6-1.3,1.5-3,2.9-4.9c1.7-2.4,3.5-3.8,5.2-4.2c1.6-0.4,3.4-0.1,5.1,1.1
		c1.7,1.2,2.7,2.6,3,4.2c0.5,2.2-0.3,4.8-1.9,7.2c-0.5,0.7-1,1.4-1.5,1.8l7.5,5.2l-1.7,2.4L86.7,142.1z M97.5,146
		c0.5-0.4,1-1.1,1.6-1.9c2-2.9,1.9-5.7-0.7-7.5c-2.5-1.7-4.9-0.8-6.8,1.9c-0.7,1.1-1.2,1.9-1.4,2.4L97.5,146z"/>
	<path id="XMLID_137_" class="st1" d="M115.4,124.9l-5.9,6.6l6.2,5.5l6.6-7.4l1.9,1.7l-8.6,9.6l-17.1-15.3l8.2-9.2l1.9,1.7l-6.3,7
		l5.4,4.8l5.9-6.6L115.4,124.9z"/>
	<path id="XMLID_145_" class="st1" d="M123.8,101l13.3,15.6l1.6-1.2l4.9,6.1l-1.8,1.5l-3.7-4.1l-11,9.4l3.4,4.3l-1.8,1.5l-5.2-5.8
		l1.3-1.2c-0.4-1.7-0.8-3.6-1.6-5.3c-1.1-2.5-2.9-5.1-5.4-8.1l-3.8-4.4L123.8,101z M120.6,112.6c2.4,2.8,4.1,5.4,5.2,7.9
		c0.7,1.5,1.1,3.2,1.4,4.5l7.7-6.6l-11.7-13.7l-5.4,4.6L120.6,112.6z"/>
	<path id="XMLID_148_" class="st1" d="M144.6,87.3l12.1,19.5l-2.5,1.6l-10.8-17.4l-9,5.6l10.8,17.4l-2.5,1.6L130.6,96L144.6,87.3z"
		/>
	<path id="XMLID_152_" class="st1" d="M151.5,84.1c1.2-0.8,2.8-1.7,5-2.7c2.7-1.2,4.9-1.4,6.6-0.9c1.6,0.5,3,1.7,3.8,3.6
		c0.8,1.9,1,3.6,0.4,5.2c-0.7,2.2-2.7,4-5.4,5.2c-0.8,0.4-1.6,0.7-2.3,0.8l3.7,8.4l-2.7,1.2L151.5,84.1z M158.7,93
		c0.7-0.1,1.4-0.4,2.3-0.8c3.3-1.5,4.5-3.9,3.2-6.8c-1.2-2.8-3.8-3.2-6.8-1.9c-1.2,0.5-2,1-2.4,1.4L158.7,93z"/>
	<path id="XMLID_157_" class="st1" d="M172.9,75.1l2.7,9.3c1,3.5,1.8,6.4,2.4,9.4l0.1,0c0.5-2.6,1.1-5.4,2-8.5l3.9-13.4l2.8-0.8
		l6.3,22l-2.7,0.8l-2.7-9.4c-1-3.6-1.7-6.2-2.3-9l-0.1,0c-0.4,2.7-1.2,5.7-1.9,8.6L179.6,97l-3,0.9l-6.3-22L172.9,75.1z"/>
	<path id="XMLID_169_" class="st1" d="M195.4,92.6c0.3-0.7,0.5-1.4,0.6-2.2c0.6-2.7,0.8-6,2.4-8.1c0.5-0.6,1.1-1.1,1.7-1.4l0-0.1
		c-2.9-0.1-5.4-1.8-5.8-4.9c-0.3-2,0.3-3.7,1.4-4.9c1.3-1.3,3.4-2.3,6.3-2.7c1.9-0.3,4-0.4,5.5-0.3l3.1,22.4l-2.9,0.4l-1.4-9.8
		l-2.2,0.3c-1.4,0.2-2.4,0.6-3.1,1.6c-1.3,1.8-1.5,5.2-2,7.5c-0.2,0.6-0.3,1.1-0.5,1.8L195.4,92.6z M204.8,70.5
		c-0.5,0-1.5-0.1-2.8,0.1c-2.9,0.4-5.2,1.9-4.8,5c0.4,2.7,3,4,6.2,3.5c1-0.1,1.9-0.3,2.5-0.4L204.8,70.5z"/>
	<path id="XMLID_172_" class="st1" d="M219.1,69.7l-7,0.1l0-2.5l17-0.3l0,2.5l-7,0.1l0.3,20.4l-3,0L219.1,69.7z"/>
	<path id="XMLID_174_" class="st1" d="M236.7,67.6l-1.2,9.6c-0.4,3.6-0.9,6.6-1.4,9.6l0.1,0c1.4-2.2,3.1-4.5,5.1-7l8.8-10.8l2.9,0.4
		l-2.7,22.7l-2.8-0.3l1.2-9.7c0.4-3.7,0.8-6.4,1.4-9.2l-0.1,0c-1.4,2.4-3.3,4.8-5.1,7.2l-8.5,10.5l-3.1-0.4l2.7-22.7L236.7,67.6z"/>
	<path id="XMLID_176_" class="st1" d="M266.8,85.7l-8.6-2.2l-2.1,8l9.6,2.5l-0.6,2.4l-12.5-3.2l5.8-22.2l12,3.1l-0.6,2.4l-9.1-2.4
		l-1.8,7l8.6,2.2L266.8,85.7z"/>
	<path id="XMLID_178_" class="st1" d="M289.5,105.7c-1.2,0-3.4-0.4-6-1.5c-5.9-2.7-8.6-8.4-5.5-15.3c3-6.5,9.4-8.9,15.9-6
		c2.6,1.2,4,2.5,4.5,3.2l-1.7,1.9c-0.8-1-2.1-2-3.8-2.8c-4.9-2.2-9.6-0.6-12.1,4.9c-2.3,5.1-0.9,9.7,4.2,12c1.6,0.7,3.5,1.2,4.8,1.1
		L289.5,105.7z"/>
	<path id="XMLID_180_" class="st1" d="M306.6,90.1l-5.2,8.1l9.3,6l5.2-8.1l2.5,1.6L306,117l-2.5-1.6l5.8-9l-9.3-6l-5.8,9l-2.5-1.6
		l12.4-19.3L306.6,90.1z"/>
	<path id="XMLID_182_" class="st1" d="M322,129.7c-1.2-0.3-3.2-1.3-5.3-3.2c-4.9-4.3-5.8-10.5-0.9-16.2c4.7-5.4,11.6-5.9,16.9-1.2
		c2.1,1.9,3.1,3.5,3.4,4.3l-2.1,1.3c-0.5-1.1-1.4-2.5-2.9-3.8c-4-3.5-9-3.3-13,1.2c-3.7,4.2-3.6,9.1,0.6,12.7c1.4,1.2,3,2.1,4.3,2.5
		L322,129.7z"/>
</g>
<g id="by_x5F_contract">
	<path id="XMLID_185_" class="st1" d="M133.6,336.8l-15.7,16.7l-2.2-2l14-14.9l-7.8-7.3l-14,14.9l-2.2-2l15.7-16.7L133.6,336.8z"/>
	<path id="XMLID_187_" class="st1" d="M146.3,359.6c-4.5,6.5-10.8,7.2-15.6,3.9c-5-3.4-5.8-9.7-1.9-15.4c4.1-6,10.5-7.4,15.6-3.9
		C149.5,347.8,150.2,354,146.3,359.6z M131.4,349.9c-2.8,4-3.1,9.2,0.8,11.8c3.9,2.7,8.5,0.6,11.4-3.7c2.6-3.8,3.3-9-0.8-11.8
		C138.9,343.4,134.3,345.7,131.4,349.9z"/>
	<path id="XMLID_190_" class="st1" d="M159.6,378.5c-1.2,0-3.4-0.5-5.9-1.7c-5.8-2.8-8.4-8.7-5.1-15.4c3.2-6.4,9.7-8.7,16-5.5
		c2.6,1.3,3.9,2.6,4.4,3.3l-1.7,1.9c-0.8-1-2-2.1-3.7-2.9c-4.8-2.4-9.5-0.9-12.2,4.5c-2.5,5-1.2,9.7,3.8,12.2
		c1.6,0.8,3.4,1.3,4.8,1.3L159.6,378.5z"/>
	<path id="XMLID_192_" class="st1" d="M176.3,363.6l-6.6-2.2l0.8-2.4l16.1,5.4l-0.8,2.4l-6.6-2.2l-6.5,19.3l-2.8-1L176.3,363.6z"/>
	<path id="XMLID_194_" class="st1" d="M185.7,380.2l-3.9,6.5l-3-0.7l12.6-20.7l3.5,0.8l2.7,24.1l-3.1-0.7l-0.8-7.6L185.7,380.2z
		 M193.6,379.6l-0.8-6.9c-0.2-1.6-0.2-3-0.3-4.3l-0.1,0c-0.6,1.3-1.3,2.5-2,3.8l-3.6,6L193.6,379.6z"/>
	<path id="XMLID_197_" class="st1" d="M204.7,368.3c1.3-0.2,3.4-0.2,5.4,0c2.9,0.3,4.8,0.9,6.1,2.2c1.1,1,1.7,2.4,1.5,4.2
		c-0.2,2.2-1.8,4-4.3,4.7l0,0.1c2.1,0.7,4.5,2.7,4.2,6.1c-0.2,2-1.1,3.4-2.3,4.4c-1.7,1.3-4.3,1.8-8.1,1.5c-2-0.2-3.6-0.4-4.6-0.7
		L204.7,368.3z M205.9,388.8c0.6,0.2,1.4,0.3,2.5,0.3c3,0.3,6-0.6,6.2-3.9c0.3-3.1-2.3-4.6-5.5-4.9l-2.4-0.2L205.9,388.8z
		 M206.9,377.9l2.7,0.2c3.1,0.3,5.1-1.2,5.3-3.4c0.2-2.7-1.7-3.9-4.7-4.2c-1.4-0.1-2.1-0.1-2.6,0L206.9,377.9z"/>
	<path id="XMLID_201_" class="st1" d="M225,369.1l0.4,10.2l0.9,0l7.5-10.5l3.6-0.1l-8.3,10.8c3.8,0.4,5.3,2.6,6.6,5.7
		c0.9,2.3,1.7,4.4,2.8,6.4l-3.2,0.1c-0.9-1.5-1.6-3.5-2.3-5.3c-1.2-3-2.7-5-6.6-4.9l-1,0l0.4,10.5l-2.9,0.1l-0.9-22.9L225,369.1z"/>
	<path id="XMLID_203_" class="st1" d="M242,368l1.7,9.5c0.6,3.6,1.1,6.5,1.4,9.6l0.1,0c0.7-2.5,1.7-5.2,2.9-8.2l5.2-12.9l2.9-0.5
		l4,22.6l-2.7,0.5l-1.7-9.6c-0.7-3.6-1.1-6.3-1.4-9.2l-0.1,0c-0.7,2.7-1.7,5.6-2.8,8.3l-5.1,12.5l-3.1,0.6l-4-22.6L242,368z"/>
	<path id="XMLID_205_" class="st1" d="M281.9,356.4l8.4,21.3l-2.8,1.1l-7.5-19l-9.9,3.9l7.5,19l-2.8,1.1l-8.4-21.3L281.9,356.4z"/>
	<path id="XMLID_207_" class="st1" d="M307.9,354.7c3.9,6.8,1.9,12.8-3.2,15.8c-5.2,3-11.3,1.1-14.7-4.9c-3.6-6.3-2.1-12.7,3.2-15.7
		C298.6,346.7,304.5,348.9,307.9,354.7z M292.7,364c2.4,4.2,6.9,6.7,11,4.4c4.1-2.3,4.2-7.4,1.6-11.9c-2.3-3.9-6.7-6.9-11-4.4
		C290.1,354.5,290.2,359.6,292.7,364z"/>
	<path id="XMLID_210_" class="st1" d="M312.1,337.3l6.7,7.7l0.7-0.6l-0.7-12.8l2.7-2.3l0.3,13.6c3.2-2.1,5.8-1.3,8.7,0.3
		c2.2,1.2,4,2.4,6.2,3.3l-2.4,2.1c-1.6-0.6-3.5-1.8-5.1-2.7c-2.8-1.6-5.2-2.2-8.2,0.3l-0.7,0.6l6.9,7.9l-2.2,1.9l-15-17.3
		L312.1,337.3z"/>
	<path id="XMLID_212_" class="st1" d="M343.7,321c5.9,5.2,5.9,11.6,2.1,16c-4,4.5-10.3,4.7-15.5,0.1c-5.5-4.8-6.1-11.3-2-15.9
		C332.3,316.4,338.6,316.5,343.7,321z M332.2,334.6c3.7,3.2,8.7,4.1,11.8,0.6c3.1-3.5,1.6-8.4-2.3-11.8c-3.4-3-8.6-4.4-11.8-0.6
		C326.7,326.5,328.5,331.3,332.2,334.6z"/>
	<path id="XMLID_215_" class="st1" d="M338.2,309l8.1,5.1l5.9-9.4l-8.1-5.1l1.6-2.5l19.3,12.3l-1.6,2.5l-9.1-5.8l-5.9,9.4l9.1,5.8
		l-1.6,2.5l-19.3-12.3L338.2,309z"/>
	<path id="XMLID_217_" class="st1" d="M351.7,290.6l-2.9,6.3l-2.3-1.1l7.1-15.4l2.3,1.1l-2.9,6.4l18.5,8.6l-1.3,2.7L351.7,290.6z"/>
	<path id="XMLID_219_" class="st1" d="M354.3,279.1c0.2-1.4,0.6-3.3,1.3-5.5c0.9-2.8,2.2-4.6,3.8-5.5c1.4-0.9,3.2-1,5.2-0.4
		c2,0.6,3.3,1.7,4.1,3.2c1.1,2,1.1,4.7,0.2,7.4c-0.3,0.8-0.6,1.6-0.9,2.2l8.7,2.9l-0.9,2.8L354.3,279.1z M365.7,279.7
		c0.4-0.6,0.7-1.3,1-2.3c1.1-3.4,0.1-6-2.9-7c-2.9-0.9-4.9,0.6-5.9,3.7c-0.4,1.2-0.6,2.2-0.6,2.7L365.7,279.7z"/>
	<path id="XMLID_222_" class="st1" d="M374.6,265l6.6,3.8l-0.6,3l-20.8-12.3l0.7-3.5l24-3l-0.6,3.1l-7.6,0.9L374.6,265z
		 M373.9,257.2l-6.9,0.8c-1.6,0.2-3,0.2-4.3,0.3l0,0.1c1.3,0.6,2.6,1.3,3.8,2l6,3.6L373.9,257.2z"/>
	<path id="XMLID_225_" class="st1" d="M362.4,243.2l10.1,0.8l0.1-0.9l-9.6-8.6l0.3-3.6l9.8,9.4c0.8-3.7,3.2-5,6.4-6
		c2.4-0.7,4.6-1.2,6.7-2l-0.2,3.2c-1.6,0.7-3.7,1.2-5.5,1.7c-3.1,0.8-5.3,2.1-5.6,6l-0.1,0.9l10.5,0.8l-0.2,2.9l-22.9-1.7
		L362.4,243.2z"/>
	<path id="XMLID_227_" class="st1" d="M365.5,223.3l0.4,7l-2.5,0.1l-0.9-16.9l2.5-0.1l0.4,7l20.4-1.1l0.2,3L365.5,223.3z"/>
	<path id="XMLID_229_" class="st1" d="M361.8,209.9l8.8-6.2c1.2-0.8,2.4-1.6,3.7-2.4l0-0.1c-1.2-0.2-2.6-0.4-4.3-0.7l-10.1-1.8
		l-0.6-3.1l12.4,2.6c3.2,0.7,6.9,1.5,9.3,2.7c2.1,1.1,3.3,2.6,3.7,4.6c0.1,0.7,0.2,1.3,0.1,1.7l-2.4,0.1c0-0.2,0-0.6-0.1-1.1
		c-0.5-2.3-2.9-3.3-4.7-3.7c-0.5-0.1-0.9,0-1.4,0.3l-13.8,10.2L361.8,209.9z"/>
</g>
<g id="stars">
	<path id="XMLID_48_" class="st1" d="M351.6,144.2l-5.1-0.2l-0.1,0l3.3,3.6l-1.8,1.3l-2.3-4.3l-0.1,0l-1.4,4.8l-2.1-1l2.6-4.2l0-0.1
		l-5,0.9l-0.1-2.2l5,0.3l0.1,0l-3.3-3.6l1.8-1.3l2.2,4.3l0.1,0l1.5-4.8l2.1,1l-2.5,4.2l0,0.1l4.9-1L351.6,144.2z"/>
	<path id="XMLID_110_" class="st1" d="M359.2,157.1l-5-0.7l-0.1,0l3,3.9l-1.9,1.1l-1.9-4.6l-0.1,0l-1.9,4.6l-2-1.2l3-3.9l0-0.1
		l-5,0.4l0.1-2.2l5,0.7l0.1,0l-2.9-3.9l1.9-1.1l1.8,4.5l0.1,0l1.9-4.6l2,1.2l-2.9,4l0,0.1l4.9-0.5L359.2,157.1z"/>
	<path id="XMLID_112_" class="st1" d="M365.6,170.6l-5-1.2l-0.1,0l2.6,4.2l-2,0.9l-1.5-4.7l-0.1,0l-2.3,4.4l-1.9-1.4l3.4-3.6l0-0.1
		l-5-0.1l0.3-2.2l4.9,1.2l0.1,0l-2.5-4.1l2-0.9l1.4,4.6l0.1,0l2.4-4.4l1.8,1.3l-3.3,3.7l0,0.1l5,0L365.6,170.6z"/>
	<path id="XMLID_114_" class="st1" d="M88.2,303.1l5.1,0.6l0.1,0l-3-3.9l1.9-1.1l2,4.5l0.1,0l1.8-4.6l2,1.2l-3,4l0,0.1l5-0.5
		l-0.1,2.2l-5-0.7l-0.1,0l2.9,3.8l-1.9,1.1l-1.9-4.4l-0.1,0l-1.9,4.6l-2-1.1l2.9-4l0-0.1l-4.9,0.6L88.2,303.1z"/>
	<path id="XMLID_116_" class="st1" d="M81.7,289.7l5,1.1l0.1,0l-2.6-4.2l2-0.9l1.5,4.7l0.1,0l2.2-4.5l1.9,1.4l-3.3,3.7l0,0.1l5,0
		l-0.3,2.2l-4.9-1.2l-0.1,0l2.6,4.1l-2,0.9l-1.4-4.6l-0.1,0l-2.3,4.4l-1.9-1.3l3.3-3.7l0-0.1l-5,0.1L81.7,289.7z"/>
	<path id="XMLID_118_" class="st1" d="M76.4,275.6l4.8,1.6l0.1,0l-2.2-4.4l2.1-0.7l1,4.8l0.1,0l2.7-4.2l1.8,1.6l-3.7,3.3l0,0.1
		l5,0.5l-0.5,2.1l-4.7-1.6l-0.1,0l2.1,4.3l-2.1,0.7l-1-4.7l-0.1,0l-2.7,4.2l-1.7-1.5l3.6-3.4l0-0.1l-4.9-0.4L76.4,275.6z"/>
</g>
</svg>
