<!-- 	width="200px"  -->
<svg version="1.1" 
	id="truck_x5F_ico" 
	xmlns="http://www.w3.org/2000/svg" 
	xmlns:xlink="http://www.w3.org/1999/xlink" 
	x="0px" y="0px" 
	viewBox="0 0 380 380" 

	style="enable-background:new 0 0 380 380;" 
	xml:space="preserve">
<style type="text/css">
	.st0{fill:#FDB813;}
	.st1{fill:#F4F4F4;}
</style>
<circle id="tyre_5_" class="st0" cx="79.7" cy="251.3" r="29.9"/>
<circle id="tyre_3_" class="st0" cx="249.2" cy="251.3" r="29.9"/>
<circle id="tyre_2_" class="st0" cx="323.6" cy="251.3" r="29.9"/>
<path id="base_x5F_truck" class="st0" d="M357.2,213.4c-7.7,0-38.9,0-38.9,0V206c0.5,0,1,0,1.5,0c1,0.1,2,0.1,3.1,0.1
	c1,0,2.1,0,3.1-0.1c0.1,0,0.2,0,0.2,0c0,0,0.1,0,0.1,0c26.5-1.8,47.5-23.8,47.5-50.8c0-28.1-22.8-51-51-51l0,0v-4.3h-27.5v4.4h-33.3
	v-4.4h-27.5v4.4h-34.5v-4.4h-27.5v4.3c-1.2,0-2.4,0.1-3.7,0.1h-2.8c0,0-0.2,0.1-0.4,0.3c-24.9,3.4-44.1,24.7-44.1,50.5
	c0,28.1,22.8,51,51,51c0.7,0,1.5,0,2.2-0.1h6.2v7.2h-72.6v-5v-0.8v-92H29.8L9.6,173v62.8c0,0,0.1,6,4.5,7.2h7.9h19.6H45h1.7
	c3.7-14.8,17.1-25.8,33-25.8s29.3,11,33,25.8h0.4h103.3c3.7-14.8,17.1-25.8,33-25.8s29.3,11,33,25.8h8.2c3.7-14.8,17.1-25.7,33-25.7
	c15.9,0,29.3,11,33,25.7h5.1h1.7h0.8v-23.2C364.4,219.8,364.9,213.4,357.2,213.4z M82.2,166.5H20l14.3-44.6h47.9V166.5z"/>
<g id="sns">
	<path id="XMLID_181_" class="st1" d="M248.9,177.9c-2.4,1.2-7.1,2.4-13.1,2.4c-14,0-24.5-8.8-24.5-25.1c0-15.5,10.5-26,25.9-26
		c6.2,0,10.1,1.3,11.8,2.2l-1.5,5.2c-2.4-1.2-5.9-2.1-10-2.1c-11.6,0-19.3,7.4-19.3,20.4c0,12.1,7,19.9,19,19.9
		c3.9,0,7.9-0.8,10.4-2.1L248.9,177.9z"/>
	<path id="XMLID_183_" class="st1" d="M263.3,129.9v20.7h24v-20.7h6.5v49.6h-6.5v-23.2h-24v23.2h-6.4v-49.6H263.3z"/>
	<path id="XMLID_185_" class="st1" d="M339.5,177.9c-2.4,1.2-7.1,2.4-13.1,2.4c-14,0-24.5-8.8-24.5-25.1c0-15.5,10.5-26,25.9-26
		c6.2,0,10.1,1.3,11.8,2.2l-1.5,5.2c-2.4-1.2-5.9-2.1-10-2.1c-11.6,0-19.3,7.4-19.3,20.4c0,12.1,7,19.9,19,19.9
		c3.9,0,7.9-0.8,10.4-2.1L339.5,177.9z"/>
</g>
<g id="logo_x5F_drop_4_">
	<path id="l_x5F_d1_4_" class="st1" d="M172.1,183.1c0,0-19.2-1.4-20.7-15c-1.6-13.5,8.2-25.1,21.4-41
		C172.8,127,148.7,162.1,172.1,183.1z"/>
	<path id="l_x5F_d2_4_" class="st1" d="M173.9,129.2c0,0,18,21.2,16.6,36.9s-17.6,14.4-17.6,14.4S196.1,177.8,173.9,129.2z"/>
	<path id="l_x5F_d3_4_" class="st1" d="M172.8,129.3c-0.9,3.3-1.9,7.4-3,12c0,0-1.9,8.2-0.1,13c0.2,0.4,0.5,1.1,1.1,1.6
		c0.9,0.6,2.1,0.7,3,0.2c0.4-0.2,1-0.7,1.4-1.8c1.4-4-0.5-13-0.9-15.1C173.8,136.9,173.2,133.5,172.8,129.3z"/>
	<path id="l_x5F_d4_4_" class="st1" d="M172.1,179.1c-0.5-0.9-1.1-2.3-1.7-4.1c-0.5-1.5-3-10.1,0.3-12.5c1-0.7,2.5-0.8,3.5-0.2
		c2.2,1.2,1.8,5.3,1.7,7.1C175.6,173.5,173.8,176.8,172.1,179.1z"/>
</g>
</svg>
